<?xml version="1.0" ?><!DOCTYPE svg  PUBLIC '-//W3C//DTD SVG 1.1//EN'  'http://www.w3.org/Graphics/SVG/1.1/DTD/svg11.dtd'><svg enable-background="new 0 0 128 128" height="128px" id="Layer_1" version="1.1" viewBox="0 0 128 128" width="128px" xml:space="preserve" xmlns="http://www.w3.org/2000/svg" xmlns:xlink="http://www.w3.org/1999/xlink"><path d="M126.713,101.028c0,2.242-1.818,4.061-4.061,4.061H4.773c-2.242,0-4.061-1.818-4.061-4.061V24.972  c0-2.242,1.818-4.061,4.061-4.061h117.879c2.242,0,4.061,1.818,4.061,4.061V101.028z" fill="#808080"/><g><path clip-rule="evenodd" d="M19.443,74.157c-6.29-0.021-11.596-5.402-11.5-11.668   c0.097-6.348,5.338-11.314,11.876-11.255c6.059,0.056,11.116,5.177,11.187,11.333C31.078,68.821,25.736,74.177,19.443,74.157z    M16.769,60.094c-0.484,1.268-0.066,3.435-1.8,4.671c-1.198,0.855-1.616,1.353,0.188,1.754c0.664,0.146,0.6,0.967,0.901,1.154   c0.918,0.566,2.724,1.415,2.896,1.188c0.934-1.247,2.212-1.038,3.397-1.312c1.222-0.283,2.093-1.297,1.745-2.356   c-0.803-2.449,1.477-5.359-1.589-7.669c-0.824-0.621-2.045-0.935-2.708-1.854c-1.051,0.938-2.273,1.439-3.678,1.607   c-0.202,0.024-0.033,0.658,0.264,0.903C16.851,58.568,17.006,59.043,16.769,60.094z" fill="#FFFFFF" fill-rule="evenodd"/><path clip-rule="evenodd" d="M36.889,74.131c-5.74-0.625-5.762-0.312-4.292-6.141   c0.747-2.962,1.651-5.858,1.924-8.957c0.189-2.15,1.005-4.342,1.993-6.287c0.507-0.999,2.103-1.381,3.379-1.083   c1.68,0.394,0.38,1.583,0.461,2.402c0.032,0.337-0.147,0.701-0.249,1.047c-0.612,2.067-1.381,3.972,2.33,3.248   c2.24-0.438,4.181,1.834,4.516,4.482C47.769,69.274,43.376,74.2,36.889,74.131z M42.738,64.926   c-0.118-1.512-0.073-2.992-1.914-3.211c-1.764-0.209-2.565,0.78-2.887,2.407c-0.311,1.576-0.702,3.141-1.139,4.688   c-0.449,1.593,0.251,1.878,1.636,1.662C40.839,70.1,42.778,67.563,42.738,64.926z" fill="#FFFFFF" fill-rule="evenodd"/><path clip-rule="evenodd" d="M87.024,74.146c-4.095-0.093-6.02-1.76-6.561-4.996   c-1.087-6.513,4.24-12.128,10.277-10.85c1.399,0.297,2.62,0.944,3.256,2.202c1.604,3.166,1.179,6.326-0.477,9.334   C91.954,72.681,89.453,74.07,87.024,74.146z M90.729,64.791c-0.268-1.305-0.101-3.109-2.323-3.113   c-1.896-0.001-3.842,2.758-3.799,5.517c0.023,1.513,0.113,3.212,2.33,3.206C88.885,70.396,90.666,67.8,90.729,64.791z" fill="#FFFFFF" fill-rule="evenodd"/><path clip-rule="evenodd" d="M103.528,73.084c0.129-4.627,1.938-8.901,2.828-13.371   c0.089-0.452,0.476-0.731,0.96-0.841c0.438-0.098,0.861-0.266,1.3-0.367c7.707-1.794,10.666,1.193,8.742,8.822   c-0.243,0.959-0.681,1.897-0.746,2.865c-0.196,2.939-1.839,3.8-4.496,3.393l-0.021-0.007c-0.394-2.93,0.887-5.584,1.373-8.369   c0.245-1.41,0.751-2.966-1.319-3.459c-2.054-0.49-2.328,1.033-2.659,2.466c-0.483,2.094-0.964,4.19-1.483,6.277   c-0.831,3.338-1.298,3.597-4.534,2.614L103.528,73.084z" fill="#FFFFFF" fill-rule="evenodd"/><path clip-rule="evenodd" d="M67.245,58.412c0.104,2.939-1.138,4.161-3.914,3.621   c-1.258-0.244-1.76,0.417-1.959,1.576c-0.181,1.063-0.541,2.092-0.768,3.15c-0.677,3.15-0.313,3.63,2.963,3.531   c0.967-0.03,1.566,0.006,1.627,1.144c0.051,0.977,0.438,1.966-1.093,2.26c-1.427,0.275-2.844,0.574-4.287,0.358   c-2.483-0.373-3.964-1.762-3.783-4.383c0.335-4.879,1.892-9.52,3.053-14.226c0.423-1.711,2.497-1.294,3.732-1.262   c1.503,0.038,0.491,1.536,0.297,2.048c-0.732,1.955,0.012,2.372,1.773,2.196C65.683,58.345,66.493,58.412,67.245,58.412z" fill="#FFFFFF" fill-rule="evenodd"/><path clip-rule="evenodd" d="M75.602,70.354c0.96,0.052,2.117-0.601,2.354,1.229   c0.235,1.813-0.8,2.139-2.086,2.411c-4.102,0.872-7.611-0.986-8.348-4.405c-1.102-5.117,1.764-10.149,6.446-11.243   c1.412-0.331,2.868-0.484,4.298-0.108c0.833,0.22,2.355,0.018,1.984,1.403c-0.291,1.091-0.273,2.856-2.729,2.244   c-3.909-0.977-6.967,3.062-5.526,6.875C72.671,70.546,74.13,70.43,75.602,70.354z" fill="#FFFFFF" fill-rule="evenodd"/><path clip-rule="evenodd" d="M47.552,73.329c1.055-4.45,2.156-8.97,3.188-13.503   c0.558-2.457,2.481-1.387,3.74-1.313c1.457,0.085,0.58,1.408,0.425,2.112c-0.721,3.254-1.606,6.469-2.327,9.721   c-0.427,1.926-0.754,3.747-3.464,2.792C48.656,72.978,48.298,73.934,47.552,73.329z" fill="#FFFFFF" fill-rule="evenodd"/><path clip-rule="evenodd" d="M102.941,60.095c-0.895,3.785-1.831,7.812-2.81,11.831   c-0.32,1.315-1.058,2.008-2.556,1.548c-1.275-0.392-1.557-0.754-1.336-2.362c0.499-3.666,1.618-7.163,2.314-10.762   c0.32-1.655,2.709-2.665,4.144-1.894C103.418,58.843,103.018,59.36,102.941,60.095z" fill="#FFFFFF" fill-rule="evenodd"/><path clip-rule="evenodd" d="M54.543,51.445c1.242,0.27,2.295,0.675,2.206,2.241   c-0.107,1.875-1.227,2.825-2.96,2.869c-1.295,0.032-2.25-0.686-2.206-2.188C51.639,52.45,52.888,51.738,54.543,51.445z" fill="#FFFFFF" fill-rule="evenodd"/><path clip-rule="evenodd" d="M104.621,54.044c-0.232,1.766-1.399,2.593-3.127,2.507   c-1.345-0.068-2.103-0.885-1.995-2.33c0.141-1.901,1.425-2.716,3.061-2.698C103.908,51.537,105.021,52.265,104.621,54.044z" fill="#FFFFFF" fill-rule="evenodd"/><polygon clip-rule="evenodd" fill="#FFFFFF" fill-rule="evenodd" points="103.472,73.107 103.396,73.103 103.527,73.083  "/><polygon clip-rule="evenodd" fill="#FFFFFF" fill-rule="evenodd" points="112.116,73.585 112.044,73.656 112.097,73.578  "/><path clip-rule="evenodd" d="M19.88,62.133c-1.066-0.018-0.909-0.729-0.985-1.333   c-0.134-1.066,0.342-1.494,1.36-1.386c0.706,0.075,1.54,0.082,1.58,1.059C21.896,61.9,20.29,61.354,19.88,62.133z" fill="#FFFFFF" fill-rule="evenodd"/><path clip-rule="evenodd" d="M19.62,63.3c0.894,0,1.31,0.457,1.228,1.338   c-0.103,1.096-1.012,0.782-1.644,0.875c-0.778,0.113-1.149-0.252-1.044-1.081C18.272,63.541,18.769,63.206,19.62,63.3z" fill="#FFFFFF" fill-rule="evenodd"/></g></svg>